<svg xmlns="http://www.w3.org/2000/svg" width="46" height="55" viewBox="0 0 46 55">
  <g fill="#FFF" fill-rule="evenodd" transform="translate(.375 .391)">
    <path d="M16.9145281,7.90904387 L22.4826159,18.7539321 L27.9580919,7.90904387 L44.6758071,7.90904387 L31.8953849,34.6024421 C30.9749586,29.8342301 33.0755381,27.2623137 33.0755381,27.2623137 C33.0755381,27.2623137 30.149731,26.8328849 27.6704263,29.174048 C27.2203022,28.3679636 25.4508485,23.980029 18.4640935,23.2008485 C19.9753725,24.9718543 20.2801118,27.2442053 20.1637003,28.8191225 C18.9007657,27.6793253 17.0480132,26.7894247 15.46637,26.7423427 C16.2693502,27.8510969 16.2926325,30.8022558 16.2693502,30.7789735 C14.522144,29.1264487 12.2089197,28.7016763 12.2089197,28.7016763 C12.4557119,30.2108858 12.8897972,31.9249793 12.4686465,33.4936879 C11.0970613,30.7205091 0.277524834,7.89300497 0.277524834,7.89300497 L16.9145281,7.90904387 Z"/>
    <path d="M22.4885141,40.9860306 C20.1747724,43.5708816 19.1332781,45.4448469 20.5540149,45.8691018 C22.8444743,46.5551531 23.1549048,37.4010762 31.8955919,34.5787459 L22.4160803,54.4964818 L18.6314156,46.448572 C18.8300911,44.6905008 20.4929636,42.6814983 22.2174048,40.8054636 C25.1426945,37.6235513 24.7727649,34.1767384 22.6520075,32.3715853 C20.7268212,30.7325124 16.5313535,31.3223303 15.6543874,33.6816018 C15.850476,34.0080712 16.1334851,33.2625207 16.4102856,33.4089404 C16.9245654,33.6816018 15.6197227,34.5078642 16.4102856,34.9212541 C16.730029,35.0733651 16.7584851,35.1996068 17.0151076,35.2539321 C18.1647351,35.4960679 18.1135141,34.0649834 19.5094164,34.0246275 C20.2596233,34.00238 21.227649,34.4592301 21.5101407,35.7749379 C21.774524,37.0052773 21.2928394,38.4172185 19.4659561,39.8529594 C18.9904801,40.2265108 17.8015315,40.8189156 16.7734892,42.633899 L16.6218957,42.2406871 C17.7042632,39.8746896 21.7822848,39.0370447 21.1624586,35.8183982 C20.9270488,34.5968543 19.7841474,34.118274 19.0111755,34.4375 C18.1342094,34.8001863 18.285803,35.6776697 17.0151076,35.4960679 C16.1443502,36.3088783 15.2342715,37.3239859 14.2331333,38.0064156 C14.0732616,38.0281457 14.1953642,37.4947227 14.2026076,37.3715853 C14.5006209,36.4128725 14.7991515,35.6233444 15.1401076,34.6796358 C15.3941432,35.0133485 15.290149,35.5576366 15.2466887,36.1340025 C15.5079677,35.9167012 15.9467094,35.127173 15.8965232,34.9823055 C15.3822434,34.5285596 15.0304222,34.4478477 15.1701159,33.9837541 C16.2286838,30.4758899 21.3362997,30.5876449 22.9024214,32.1542839 C25.7935637,35.0449089 24.8048427,38.3991101 22.4885141,40.9860306"/>
    <polygon points="17.939 .325 17.939 1.293 16.947 1.293 16.947 2.308 17.786 2.308 17.786 3.228 16.923 3.228 16.923 4.316 17.915 4.316 17.915 5.26 15.898 5.26 15.898 .325"/>
    <polygon points="17.939 .325 17.939 1.293 16.947 1.293 16.947 2.308 17.786 2.308 17.786 3.228 16.923 3.228 16.923 4.316 17.915 4.316 17.915 5.26 15.898 5.26 15.898 .325"/>
    <path d="M8.44639901,4.38514073 L8.44639901,1.28600993 C8.95240066,1.2741101 9.36216887,1.88203642 9.36216887,2.8624793 C9.36216887,4.12800083 8.74130795,4.42601407 8.44639901,4.38514073 M7.5254553,0.340749172 L7.45095199,0.324710265 L7.43905215,5.25951987 C8.56798427,5.26935017 10.3296772,5.59219785 10.3545116,2.83712748 C10.3762417,0.430256623 8.8406457,0.256932947 7.5254553,0.340749172"/>
    <path d="M8.44639901,4.38514073 L8.44639901,1.28600993 C8.95240066,1.2741101 9.36216887,1.88203642 9.36216887,2.8624793 C9.36216887,4.12800083 8.74130795,4.42601407 8.44639901,4.38514073 M7.5254553,0.340749172 L7.45095199,0.324710265 L7.43905215,5.25951987 C8.56798427,5.26935017 10.3296772,5.59219785 10.3545116,2.83712748 C10.3762417,0.430256623 8.8406457,0.256932947 7.5254553,0.340749172"/>
    <polygon points="4.856 1.915 5.441 .324 6.504 .324 5.368 2.859 5.344 5.26 4.376 5.26 4.376 2.859 3.208 .324 4.281 .324"/>
    <polygon points="4.856 1.915 5.441 .324 6.504 .324 5.368 2.859 5.344 5.26 4.376 5.26 4.376 2.859 3.208 .324 4.281 .324"/>
    <polygon points="13.609 2.993 13.609 .377 14.634 .377 14.634 5.293 13.705 5.293 12.564 2.562 12.564 5.293 11.577 5.293 11.577 .377 12.526 .377"/>
    <polygon points="13.609 2.993 13.609 .377 14.634 .377 14.634 5.293 13.705 5.293 12.564 2.562 12.564 5.293 11.577 5.293 11.577 .377 12.526 .377"/>
    <path d="M2.22568295,0.506001656 C1.95923013,0.349751656 1.67932533,0.265418046 1.36734272,0.265418046 C0.535389073,0.265418046 0.0599130795,0.929739238 0.0599130795,1.70322848 C0.0599130795,2.4187707 0.431394868,2.78818295 0.990169702,3.16535596 C1.26386589,3.36040977 1.55153146,3.54252897 1.55153146,3.91970199 C1.55153146,4.24513659 1.29801325,4.37448262 0.986030629,4.37448262 C0.699917219,4.37448262 0.496585265,4.3098096 0.268936258,4.1535596 L0.268936258,5.07709023 C0.489859272,5.23954884 0.828228477,5.32439983 1.1008899,5.32439983 C2.01148593,5.32439983 2.51231374,4.66732202 2.51231374,3.79604719 C2.51231374,2.46947434 1.03621689,2.42446192 1.03621689,1.6178601 C1.03621689,1.31881209 1.20436672,1.17446192 1.50341474,1.17446192 C1.77038493,1.17446192 2.03062914,1.28000828 2.22568295,1.4486755 L2.22568295,0.506001656 Z"/>
    <path d="M2.22568295.506001656C1.95923013.349751656 1.67932533.265418046 1.36734272.265418046.535389073.265418046.0599130795.929739238.0599130795 1.70322848.0599130795 2.4187707.431394868 2.78818295.990169702 3.16535596 1.26386589 3.36040977 1.55153146 3.54252897 1.55153146 3.91970199 1.55153146 4.24513659 1.29801325 4.37448262.986030629 4.37448262.699917219 4.37448262.496585265 4.3098096.268936258 4.1535596L.268936258 5.07709023C.489859272 5.23954884.828228477 5.32439983 1.1008899 5.32439983 2.01148593 5.32439983 2.51231374 4.66732202 2.51231374 3.79604719 2.51231374 2.46947434 1.03621689 2.42446192 1.03621689 1.6178601 1.03621689 1.31881209 1.20436672 1.17446192 1.50341474 1.17446192 1.77038493 1.17446192 2.03062914 1.28000828 2.22568295 1.4486755L2.22568295.506001656zM44.598096.506001656C44.3311258.349751656 44.051221.265418046 43.7397558.265418046 42.9067674.265418046 42.4323262.929739238 42.4323262 1.70322848 42.4323262 2.4187707 42.8027732 2.78818295 43.3620654 3.16535596 43.6357616 3.36040977 43.9239445 3.54252897 43.9239445 3.91970199 43.9239445 4.24513659 43.6699089 4.37448262 43.3579263 4.37448262 43.0718129 4.37448262 42.8679636 4.3098096 42.640832 4.1535596L42.640832 5.07709023C42.861755 5.23954884 43.2001242 5.32439983 43.4727856 5.32439983 44.3833816 5.32439983 44.8842094 4.66732202 44.8842094 3.79604719 44.8842094 2.46947434 43.4081126 2.42446192 43.4081126 1.6178601 43.4081126 1.31881209 43.5767798 1.17446192 43.8758278 1.17446192 44.1422806 1.17446192 44.4025248 1.28000828 44.598096 1.4486755L44.598096.506001656z"/>
    <path d="M44.598096.506001656C44.3311258.349751656 44.051221.265418046 43.7397558.265418046 42.9067674.265418046 42.4323262.929739238 42.4323262 1.70322848 42.4323262 2.4187707 42.8027732 2.78818295 43.3620654 3.16535596 43.6357616 3.36040977 43.9239445 3.54252897 43.9239445 3.91970199 43.9239445 4.24513659 43.6699089 4.37448262 43.3579263 4.37448262 43.0718129 4.37448262 42.8679636 4.3098096 42.640832 4.1535596L42.640832 5.07709023C42.861755 5.23954884 43.2001242 5.32439983 43.4727856 5.32439983 44.3833816 5.32439983 44.8842094 4.66732202 44.8842094 3.79604719 44.8842094 2.46947434 43.4081126 2.42446192 43.4081126 1.6178601 43.4081126 1.31881209 43.5767798 1.17446192 43.8758278 1.17446192 44.1422806 1.17446192 44.4025248 1.28000828 44.598096 1.4486755L44.598096.506001656zM27.2677463.506001656C27.0012935.349751656 26.721906.265418046 26.4099234.265418046 25.576935.265418046 25.1019764.929739238 25.1019764 1.70322848 25.1019764 2.4187707 25.4734582 2.78818295 26.0327504 3.16535596 26.3059292 3.36040977 26.5941122 3.54252897 26.5941122 3.91970199 26.5941122 4.24513659 26.3400766 4.37448262 26.028094 4.37448262 25.7419805 4.37448262 25.5381312 4.3098096 25.3109996 4.1535596L25.3109996 5.07709023C25.5319226 5.23954884 25.8697744 5.32439983 26.1429532 5.32439983 27.0535493 5.32439983 27.5543771 4.66732202 27.5543771 3.79604719 27.5543771 2.46947434 26.0777628 2.42446192 26.0777628 1.6178601 26.0777628 1.31881209 26.24643 1.17446192 26.5459954 1.17446192 26.8124483 1.17446192 27.0726925 1.28000828 27.2677463 1.4486755L27.2677463.506001656z"/>
    <path d="M27.2677463.506001656C27.0012935.349751656 26.721906.265418046 26.4099234.265418046 25.576935.265418046 25.1019764.929739238 25.1019764 1.70322848 25.1019764 2.4187707 25.4734582 2.78818295 26.0327504 3.16535596 26.3059292 3.36040977 26.5941122 3.54252897 26.5941122 3.91970199 26.5941122 4.24513659 26.3400766 4.37448262 26.028094 4.37448262 25.7419805 4.37448262 25.5381312 4.3098096 25.3109996 4.1535596L25.3109996 5.07709023C25.5319226 5.23954884 25.8697744 5.32439983 26.1429532 5.32439983 27.0535493 5.32439983 27.5543771 4.66732202 27.5543771 3.79604719 27.5543771 2.46947434 26.0777628 2.42446192 26.0777628 1.6178601 26.0777628 1.31881209 26.24643 1.17446192 26.5459954 1.17446192 26.8124483 1.17446192 27.0726925 1.28000828 27.2677463 1.4486755L27.2677463.506001656zM35.2447744 3.64543667L35.5024317 1.84390522 35.7906147 3.64543667 35.2447744 3.64543667zM36.0782802.377121275L35.0150559.377121275 33.8742239 5.29330505 34.8996792 5.29330505 35.0916287 4.45928187 35.9825642 4.45928187 36.1936569 5.29330505 37.2460161 5.29330505 36.0782802.377121275z"/>
    <path d="M35.2447744,3.64543667 L35.5024317,1.84390522 L35.7906147,3.64543667 L35.2447744,3.64543667 Z M36.0782802,0.377121275 L35.0150559,0.377121275 L33.8742239,5.29330505 L34.8996792,5.29330505 L35.0916287,4.45928187 L35.9825642,4.45928187 L36.1936569,5.29330505 L37.2460161,5.29330505 L36.0782802,0.377121275 Z"/>
    <polygon points="40.284 2.993 40.284 .377 41.309 .377 41.309 5.293 40.38 5.293 39.239 2.562 39.239 5.293 38.252 5.293 38.252 .377 39.201 .377"/>
    <polygon points="40.284 2.993 40.284 .377 41.309 .377 41.309 5.293 40.38 5.293 39.239 2.562 39.239 5.293 38.252 5.293 38.252 .377 39.201 .377"/>
    <polygon points="29.438 .377 29.965 3.511 30.491 .377 31.355 .377 31.957 3.511 32.38 .377 33.452 .377 32.426 5.293 31.555 5.293 30.952 2.025 30.271 5.293 29.381 5.293 28.413 .377"/>
    <polygon points="29.438 .377 29.965 3.511 30.491 .377 31.355 .377 31.957 3.511 32.38 .377 33.452 .377 32.426 5.293 31.555 5.293 30.952 2.025 30.271 5.293 29.381 5.293 28.413 .377"/>
    <polygon points="20.401 1.915 20.986 .324 22.05 .324 20.913 2.859 20.89 5.26 19.922 5.26 19.922 2.859 18.753 .324 19.826 .324"/>
    <polygon points="20.401 1.915 20.986 .324 22.05 .324 20.913 2.859 20.89 5.26 19.922 5.26 19.922 2.859 18.753 .324 19.826 .324"/>
  </g>
</svg>
